<svg xmlns="http://www.w3.org/2000/svg" viewBox="0 0 138 128">
  <rect id="clear-space" style="fill: #fff" width="138" height="128"/>
  <path id="squarespace-logo-symbol" style="fill: #222" d="M84.55312,62.90466c-0.60544-0.60544-1.58527-0.60544-2.1907,0L67.90465,77.36243c-2.05378,2.05378-5.39545,2.05378-7.44816,0.00107c-0.60544-0.60544-1.58526-0.60544-2.1907,0s-0.60544,1.58527,0,2.1907c3.26145,3.26144,8.56812,3.26038,11.82957-0.00108l14.45776-14.45776C85.15855,64.48993,85.15855,63.5101,84.55312,62.90466zM89.37308,58.0847c-3.26144-3.26145-8.56812-3.26038-11.82956,0.00107L63.08575,72.54353c-0.60544,0.60544-0.60544,1.58527,0,2.1907c0.60543,0.60544,1.58526,0.60544,2.1907,0l14.45776-14.45776c2.05378-2.05378,5.39545-2.05378,7.44817-0.00107c2.05378,2.05378,2.05378,5.39545,0,7.44923l-11.63061,11.6306c-0.60544,0.60544-0.60544,1.58527,0,2.1907s1.58527,0.60544,2.1907,0l11.6306-11.63061C92.63453,66.65388,92.63453,61.34614,89.37308,58.0847zM79.73421,48.44583c-3.26144-3.26145-8.56812-3.26038-11.82957,0.00107L53.44689,62.90466c-0.60544,0.60544-0.60544,1.58527,0,2.1907c0.60544,0.60543,1.58526,0.60543,2.1907,0L70.09535,50.6376c2.05378-2.05378,5.39545-2.05378,7.44817-0.00107c0.60544,0.60544,1.58526,0.60544,2.1907,0S80.33965,49.05127,79.73421,48.44583zM74.91425,53.2658c-0.60544-0.60544-1.58526-0.60544-2.1907,0L58.26579,67.72356c-2.05378,2.05378-5.39545,2.05378-7.44817,0.00107c-2.05378-2.05378-2.05378-5.39545,0-7.44923l11.6306-11.63061c0.60544-0.60544,0.60544-1.58526,0-2.1907c-0.60543-0.60543-1.58526-0.60543-2.1907,0L48.62692,58.0847c-3.26144,3.26144-3.26144,8.56919,0,11.83063c3.26145,3.26145,8.56812,3.26038,11.82957-0.00107L74.91425,55.4565C75.51968,54.85106,75.51968,53.87123,74.91425,53.2658z"/>
</svg>
